<svg width="159" height="52" viewBox="0 0 159 52" fill="none" xmlns="http://www.w3.org/2000/svg">
<g filter="url(#filter0_d_1_2)">
<path d="M12.616 43.92C11.4213 43.92 10.1627 43.792 8.84 43.536C7.56 43.3227 6.472 42.96 5.576 42.448C4.68 41.936 4.232 41.2747 4.232 40.464C4.232 40.3787 4.296 40.272 4.424 40.144C4.50933 39.9733 4.59467 39.952 4.68 40.08C5.23467 40.6773 5.98133 41.168 6.92 41.552C7.90133 41.8933 8.92533 42.128 9.992 42.256C11.1013 42.4267 12.1253 42.512 13.064 42.512C15.0267 42.512 16.8187 42.256 18.44 41.744C20.104 41.1893 21.4267 40.3787 22.408 39.312C23.3893 38.2027 23.88 36.8373 23.88 35.216C23.88 33.808 23.432 32.528 22.536 31.376C21.64 30.1813 20.5307 29.008 19.208 27.856C17.928 26.6613 16.6267 25.424 15.304 24.144C14.024 22.864 12.936 21.456 12.04 19.92C11.144 18.3413 10.696 16.528 10.696 14.48C10.696 12.9013 11.1227 11.4293 11.976 10.064C12.872 8.656 14.0453 7.41867 15.496 6.352C16.9893 5.28533 18.6107 4.45333 20.36 3.856C22.1093 3.25867 23.8587 2.96 25.608 2.96C27.656 2.96 29.192 3.344 30.216 4.112C31.24 4.88 31.752 6.288 31.752 8.336C31.752 9.57333 31.496 10.7467 30.984 11.856C30.472 12.9227 29.7893 13.456 28.936 13.456C28.7653 13.456 28.5947 13.392 28.424 13.264C28.2533 13.0933 28.1893 12.8587 28.232 12.56C28.3173 11.7067 28.4027 10.9173 28.488 10.192C28.5733 9.46667 28.616 8.82667 28.616 8.272C28.616 6.90667 28.3813 5.88266 27.912 5.2C27.4853 4.47467 26.6533 4.112 25.416 4.112C23.496 4.112 21.64 4.56 19.848 5.456C18.0987 6.30933 16.648 7.504 15.496 9.04C14.344 10.5333 13.768 12.2187 13.768 14.096C13.768 15.5467 14.216 16.9333 15.112 18.256C16.008 19.5787 17.096 20.8587 18.376 22.096C19.6987 23.3333 21.0213 24.592 22.344 25.872C23.6667 27.1093 24.776 28.3893 25.672 29.712C26.568 31.0347 27.016 32.4427 27.016 33.936C27.016 36.24 26.2907 38.1387 24.84 39.632C23.3893 41.0827 21.5547 42.1493 19.336 42.832C17.16 43.5573 14.92 43.92 12.616 43.92ZM29.9705 43.728C29.8852 43.728 29.7785 43.6853 29.6505 43.6C29.5225 43.5573 29.4798 43.472 29.5225 43.344C29.6078 42.704 29.7145 41.936 29.8425 41.04C29.9705 40.1013 30.3118 39.3973 30.8665 38.928C32.0185 33.8507 33.2345 28.7947 34.5145 23.76C34.9838 21.84 35.5385 19.792 36.1785 17.616C36.8612 15.3973 37.6932 13.2427 38.6745 11.152C39.6558 9.01867 40.8505 7.12 42.2585 5.456C43.7092 3.74933 45.4158 2.448 47.3785 1.552C48.6585 0.954665 49.9812 0.655998 51.3465 0.655998C51.8585 0.655998 52.4132 0.762665 53.0105 0.975998C53.6505 1.14666 54.2052 1.424 54.6745 1.808C55.1438 2.192 55.3785 2.68267 55.3785 3.28C55.3785 3.408 55.3358 3.6 55.2505 3.856C55.1225 3.94133 54.8878 4.13333 54.5465 4.432C54.2052 4.73066 53.8638 5.008 53.5225 5.264C53.2238 5.47733 53.0318 5.60533 52.9465 5.648C52.8612 5.56266 52.8185 5.49866 52.8185 5.456C52.8185 5.328 52.8612 5.2 52.9465 5.072C53.0745 4.944 53.1385 4.79466 53.1385 4.624C53.1385 4.19733 52.9038 3.81333 52.4345 3.472C52.0078 3.088 51.4958 2.78933 50.8985 2.576C50.3012 2.32 49.8105 2.192 49.4265 2.192C48.0185 2.192 46.7172 2.78933 45.5225 3.984C44.3278 5.136 43.2398 6.65067 42.2585 8.528C41.3198 10.3627 40.4878 12.3253 39.7625 14.416C39.0372 16.5067 38.4185 18.4693 37.9065 20.304C37.3945 22.096 36.9892 23.5467 36.6905 24.656C35.6665 28.5387 34.7065 32.4427 33.8105 36.368C35.3038 34.4053 36.8612 32.3787 38.4825 30.288C40.1038 28.1547 41.4478 25.9787 42.5145 23.76C42.5145 23.2053 42.6638 22.8213 42.9625 22.608C43.3038 22.352 43.6878 22.224 44.1145 22.224C44.3278 22.224 44.6052 22.2667 44.9465 22.352C45.0318 22.3093 45.1385 22.288 45.2665 22.288C45.6932 22.288 45.9492 22.5653 46.0345 23.12C46.1625 23.632 46.2265 24.0373 46.2265 24.336C46.2265 24.8053 46.1625 25.4667 46.0345 26.32C45.9492 27.1307 45.6505 27.664 45.1385 27.92C45.0958 28.432 45.0532 28.944 45.0105 29.456C45.0105 29.968 45.0105 30.5013 45.0105 31.056C45.0105 31.5253 45.0318 32.208 45.0745 33.104C45.1598 33.9573 45.3092 34.8533 45.5225 35.792C45.7785 36.688 46.1198 37.456 46.5465 38.096C46.9732 38.6933 47.5278 38.992 48.2105 38.992C48.9785 38.992 49.7038 38.6933 50.3865 38.096C51.0692 37.456 51.6878 36.7307 52.2425 35.92C52.7972 35.1093 53.2665 34.4053 53.6505 33.808C54.0345 33.168 54.2905 32.848 54.4185 32.848C54.5465 32.848 54.6105 32.976 54.6105 33.232C54.6105 33.488 54.5252 33.7867 54.3545 34.128C53.9278 34.9813 53.3732 35.9627 52.6905 37.072C52.0505 38.1387 51.2825 39.0773 50.3865 39.888C49.4905 40.656 48.4878 41.04 47.3785 41.04C46.2692 41.04 45.3518 40.656 44.6265 39.888C43.9438 39.12 43.4105 38.1813 43.0265 37.072C42.6425 35.92 42.3652 34.7467 42.1945 33.552C42.0665 32.3573 42.0025 31.3547 42.0025 30.544C42.0025 29.8187 42.0238 29.0933 42.0665 28.368C42.1092 27.6427 42.1732 26.9387 42.2585 26.256C41.0638 28.3467 39.6985 30.3947 38.1625 32.4C36.6692 34.4053 35.1545 36.3467 33.6185 38.224V38.864C33.6185 39.8027 33.5545 40.7627 33.4265 41.744C33.1278 42.0427 32.5945 42.448 31.8265 42.96C31.0585 43.472 30.4398 43.728 29.9705 43.728ZM67.424 27.856C67.2107 27.856 67.104 27.7493 67.104 27.536C67.104 27.408 67.1253 27.3013 67.168 27.216C67.424 26.5333 67.616 25.8933 67.744 25.296C67.9147 24.656 68 23.9947 68 23.312C68 23.056 67.9787 22.7147 67.936 22.288C67.936 21.8187 67.8507 21.392 67.68 21.008C67.552 20.624 67.296 20.432 66.912 20.432C66.7413 20.432 66.592 20.4533 66.464 20.496C66.336 20.496 66.1867 20.496 66.016 20.496C65.5893 20.496 65.376 20.3253 65.376 19.984C65.376 19.8133 65.568 19.664 65.952 19.536C66.3787 19.408 66.8267 19.3013 67.296 19.216C67.7653 19.1307 68.0853 19.088 68.256 19.088C69.3227 19.088 69.984 19.4933 70.24 20.304C70.5387 21.072 70.688 21.8827 70.688 22.736C70.688 23.5467 70.5387 24.4 70.24 25.296C69.984 26.192 69.4933 26.8747 68.768 27.344C68.5973 27.472 68.384 27.6 68.128 27.728C67.872 27.8133 67.6373 27.856 67.424 27.856ZM57.888 42.448C56.6507 42.448 55.776 42.1493 55.264 41.552C54.7947 40.9547 54.56 40.08 54.56 38.928C54.56 37.648 54.7093 36.368 55.008 35.088C55.3067 33.808 55.6693 32.5707 56.096 31.376L55.52 31.568C55.3067 31.44 55.2 31.2267 55.2 30.928C55.2 30.544 55.3707 30.1813 55.712 29.84C56.096 29.456 56.48 29.2427 56.864 29.2C57.12 28.56 57.4827 27.728 57.952 26.704C58.4213 25.68 58.9547 24.656 59.552 23.632C60.192 22.608 60.896 21.7547 61.664 21.072C62.432 20.3893 63.264 20.048 64.16 20.048C64.544 20.048 64.736 20.2187 64.736 20.56C64.736 20.688 64.6507 20.8587 64.48 21.072C64.3093 21.2427 64.1813 21.3707 64.096 21.456C63.5413 21.968 63.008 22.6933 62.496 23.632C61.984 24.528 61.5147 25.4667 61.088 26.448C60.6613 27.3867 60.2987 28.2187 60 28.944C61.1947 28.7733 62.368 28.6453 63.52 28.56C64.7147 28.4747 65.9093 28.432 67.104 28.432C67.232 28.432 67.552 28.4533 68.064 28.496C68.576 28.496 69.152 28.5387 69.792 28.624C70.432 28.6667 70.9653 28.752 71.392 28.88C71.8613 29.008 72.096 29.1787 72.096 29.392C72.096 29.5627 71.9893 29.6693 71.776 29.712C71.6053 29.7547 71.4773 29.776 71.392 29.776C70.8373 29.776 70.304 29.7333 69.792 29.648C69.28 29.5627 68.7467 29.52 68.192 29.52C66.7413 29.52 65.2693 29.6267 63.776 29.84C62.2827 30.0533 60.8107 30.3093 59.36 30.608C58.9333 31.7173 58.5067 32.976 58.08 34.384C57.696 35.792 57.504 37.1147 57.504 38.352C57.504 39.0347 57.632 39.696 57.888 40.336C58.144 40.9333 58.6773 41.232 59.488 41.232C60.64 41.232 61.728 40.784 62.752 39.888C63.8187 38.9493 64.8 37.904 65.696 36.752C66.592 35.5573 67.3387 34.576 67.936 33.808H68C68.1707 33.808 68.256 33.8933 68.256 34.064C68.2987 34.2347 68.32 34.3627 68.32 34.448C68.32 35.1733 68.1493 35.856 67.808 36.496C67.4667 37.0933 67.04 37.648 66.528 38.16C65.376 39.2267 64.0533 40.208 62.56 41.104C61.1093 42 59.552 42.448 57.888 42.448ZM87.6115 27.856C87.3982 27.856 87.2915 27.7493 87.2915 27.536C87.2915 27.408 87.3128 27.3013 87.3555 27.216C87.6115 26.5333 87.8035 25.8933 87.9315 25.296C88.1022 24.656 88.1875 23.9947 88.1875 23.312C88.1875 23.056 88.1662 22.7147 88.1235 22.288C88.1235 21.8187 88.0382 21.392 87.8675 21.008C87.7395 20.624 87.4835 20.432 87.0995 20.432C86.9288 20.432 86.7795 20.4533 86.6515 20.496C86.5235 20.496 86.3742 20.496 86.2035 20.496C85.7768 20.496 85.5635 20.3253 85.5635 19.984C85.5635 19.8133 85.7555 19.664 86.1395 19.536C86.5662 19.408 87.0142 19.3013 87.4835 19.216C87.9528 19.1307 88.2728 19.088 88.4435 19.088C89.5102 19.088 90.1715 19.4933 90.4275 20.304C90.7262 21.072 90.8755 21.8827 90.8755 22.736C90.8755 23.5467 90.7262 24.4 90.4275 25.296C90.1715 26.192 89.6808 26.8747 88.9555 27.344C88.7848 27.472 88.5715 27.6 88.3155 27.728C88.0595 27.8133 87.8248 27.856 87.6115 27.856ZM78.0755 42.448C76.8382 42.448 75.9635 42.1493 75.4515 41.552C74.9822 40.9547 74.7475 40.08 74.7475 38.928C74.7475 37.648 74.8968 36.368 75.1955 35.088C75.4942 33.808 75.8568 32.5707 76.2835 31.376L75.7075 31.568C75.4942 31.44 75.3875 31.2267 75.3875 30.928C75.3875 30.544 75.5582 30.1813 75.8995 29.84C76.2835 29.456 76.6675 29.2427 77.0515 29.2C77.3075 28.56 77.6702 27.728 78.1395 26.704C78.6088 25.68 79.1422 24.656 79.7395 23.632C80.3795 22.608 81.0835 21.7547 81.8515 21.072C82.6195 20.3893 83.4515 20.048 84.3475 20.048C84.7315 20.048 84.9235 20.2187 84.9235 20.56C84.9235 20.688 84.8382 20.8587 84.6675 21.072C84.4968 21.2427 84.3688 21.3707 84.2835 21.456C83.7288 21.968 83.1955 22.6933 82.6835 23.632C82.1715 24.528 81.7022 25.4667 81.2755 26.448C80.8488 27.3867 80.4862 28.2187 80.1875 28.944C81.3822 28.7733 82.5555 28.6453 83.7075 28.56C84.9022 28.4747 86.0968 28.432 87.2915 28.432C87.4195 28.432 87.7395 28.4533 88.2515 28.496C88.7635 28.496 89.3395 28.5387 89.9795 28.624C90.6195 28.6667 91.1528 28.752 91.5795 28.88C92.0488 29.008 92.2835 29.1787 92.2835 29.392C92.2835 29.5627 92.1768 29.6693 91.9635 29.712C91.7928 29.7547 91.6648 29.776 91.5795 29.776C91.0248 29.776 90.4915 29.7333 89.9795 29.648C89.4675 29.5627 88.9342 29.52 88.3795 29.52C86.9288 29.52 85.4568 29.6267 83.9635 29.84C82.4702 30.0533 80.9982 30.3093 79.5475 30.608C79.1208 31.7173 78.6942 32.976 78.2675 34.384C77.8835 35.792 77.6915 37.1147 77.6915 38.352C77.6915 39.0347 77.8195 39.696 78.0755 40.336C78.3315 40.9333 78.8648 41.232 79.6755 41.232C80.8275 41.232 81.9155 40.784 82.9395 39.888C84.0062 38.9493 84.9875 37.904 85.8835 36.752C86.7795 35.5573 87.5262 34.576 88.1235 33.808H88.1875C88.3582 33.808 88.4435 33.8933 88.4435 34.064C88.4862 34.2347 88.5075 34.3627 88.5075 34.448C88.5075 35.1733 88.3368 35.856 87.9955 36.496C87.6542 37.0933 87.2275 37.648 86.7155 38.16C85.5635 39.2267 84.2408 40.208 82.7475 41.104C81.2968 42 79.7395 42.448 78.0755 42.448ZM96.279 41.936C95.9377 41.936 95.5963 41.8293 95.255 41.616C94.9563 41.4027 94.807 41.0827 94.807 40.656C94.807 40.3147 94.871 39.952 94.999 39.568C95.127 39.1413 95.2123 38.7787 95.255 38.48C95.9803 35.664 96.7483 32.8693 97.559 30.096C98.4123 27.28 99.2443 24.4853 100.055 21.712H98.263C98.135 21.712 98.007 21.7333 97.879 21.776C97.751 21.776 97.623 21.776 97.495 21.776H97.239C97.1963 21.776 97.175 21.7973 97.175 21.84C96.919 21.712 96.791 21.52 96.791 21.264C96.791 21.0507 96.8337 20.88 96.919 20.752C97.047 20.624 97.175 20.5173 97.303 20.432C97.5163 20.2187 97.7723 20.0907 98.071 20.048C98.4123 20.0053 98.7323 19.984 99.031 19.984C99.287 19.984 99.543 20.0053 99.799 20.048C100.098 20.048 100.375 20.048 100.631 20.048C100.759 19.664 100.93 19.1307 101.143 18.448C101.356 17.7227 101.548 16.9973 101.719 16.272C101.89 15.5467 101.975 15.0133 101.975 14.672C101.975 14.4587 101.826 14.3733 101.527 14.416C101.271 14.4587 101.122 14.416 101.079 14.288C101.378 13.52 101.634 12.752 101.847 11.984C102.103 11.1733 102.338 10.3627 102.551 9.552C102.636 9.168 102.956 8.848 103.511 8.592C104.066 8.29333 104.535 8.144 104.919 8.144C105.303 8.144 105.559 8.272 105.687 8.528C105.815 8.74133 105.879 9.01867 105.879 9.36C105.879 9.82933 105.751 10.5547 105.495 11.536C105.239 12.5173 104.94 13.584 104.599 14.736C104.258 15.8453 103.916 16.8907 103.575 17.872C103.276 18.8533 103.042 19.5787 102.871 20.048H110.039C110.082 20.048 110.167 20.112 110.295 20.24C110.295 20.4107 109.996 20.56 109.399 20.688C108.844 20.7733 108.524 20.816 108.439 20.816C107.458 20.9867 106.455 21.136 105.431 21.264C104.407 21.3493 103.383 21.4347 102.359 21.52C102.103 22.3307 101.719 23.4827 101.207 24.976C100.738 26.4693 100.226 28.0693 99.671 29.776C99.159 31.4827 98.711 33.0827 98.327 34.576C97.943 36.0267 97.751 37.1147 97.751 37.84C97.751 38.224 97.815 38.6293 97.943 39.056C98.1137 39.44 98.4337 39.632 98.903 39.632C99.543 39.632 100.204 39.3973 100.887 38.928C101.612 38.4587 102.295 37.9253 102.935 37.328C103.618 36.7307 104.194 36.1973 104.663 35.728C105.132 35.2587 105.452 35.024 105.623 35.024C105.836 35.024 105.943 35.1733 105.943 35.472C105.943 35.5573 105.922 35.7493 105.879 36.048C105.879 36.3467 105.772 36.496 105.559 36.496C105.132 36.9227 104.514 37.456 103.703 38.096C102.935 38.6933 102.082 39.2907 101.143 39.888C100.247 40.4427 99.351 40.9333 98.455 41.36C97.6017 41.744 96.8763 41.936 96.279 41.936ZM124.493 42.448C123.298 42.448 122.402 42.0213 121.805 41.168C121.208 40.3147 120.802 39.3333 120.589 38.224C120.418 37.072 120.333 36.048 120.333 35.152C120.333 34.256 120.376 33.3813 120.461 32.528C120.589 31.632 120.717 30.7573 120.845 29.904C120.418 30.4587 119.821 31.248 119.053 32.272C118.285 33.2533 117.41 34.3413 116.429 35.536C115.448 36.688 114.445 37.7973 113.421 38.864C112.397 39.888 111.394 40.7413 110.413 41.424C109.474 42.064 108.664 42.384 107.981 42.384C107.384 42.384 107 42.1067 106.829 41.552C106.701 40.9973 106.637 40.5067 106.637 40.08C106.637 38.16 107.021 36.1333 107.789 34C108.557 31.8667 109.346 29.9467 110.157 28.24C110.37 27.7707 110.69 27.1307 111.117 26.32C111.544 25.5093 112.034 24.6773 112.589 23.824C113.186 22.9707 113.805 22.2667 114.445 21.712C115.085 21.1573 115.725 20.9227 116.365 21.008C116.834 20.7093 117.282 20.4533 117.709 20.24C118.178 19.984 118.69 19.856 119.245 19.856C119.586 19.856 120.141 19.9627 120.909 20.176C121.72 20.3893 122.296 20.5387 122.637 20.624C122.808 20.2827 123.064 20.0267 123.405 19.856C123.746 19.6853 124.088 19.6 124.429 19.6C124.77 19.6 125.005 19.6213 125.133 19.664C125.304 19.5787 125.432 19.536 125.517 19.536C125.773 19.536 125.944 19.728 126.029 20.112C126.114 20.4533 126.157 20.7307 126.157 20.944C126.157 21.4987 126.093 21.9893 125.965 22.416C125.837 22.8427 125.666 23.312 125.453 23.824C125.282 24.2507 125.133 24.656 125.005 25.04C124.92 25.3813 124.685 25.7013 124.301 26C124.002 27.536 123.768 29.0933 123.597 30.672C123.469 32.208 123.405 33.7653 123.405 35.344C123.405 35.8987 123.426 36.56 123.469 37.328C123.554 38.096 123.746 38.7787 124.045 39.376C124.386 39.9733 124.898 40.272 125.581 40.272C126.648 40.272 127.586 39.888 128.397 39.12C129.25 38.3093 129.954 37.5413 130.509 36.816C130.594 36.688 130.701 36.56 130.829 36.432C130.957 36.2613 131.106 36.1333 131.277 36.048L131.469 36.432C131.469 36.8587 131.256 37.3707 130.829 37.968C130.402 38.5653 129.933 39.1413 129.421 39.696C128.909 40.208 128.482 40.592 128.141 40.848C127.629 41.2747 127.053 41.6587 126.413 42C125.816 42.2987 125.176 42.448 124.493 42.448ZM110.157 39.76C110.413 39.76 110.69 39.6533 110.989 39.44C111.288 39.2267 111.522 39.0347 111.693 38.864C113.698 37.1147 115.469 35.152 117.005 32.976C118.584 30.8 119.949 28.5387 121.101 26.192C121.229 25.9787 121.357 25.744 121.485 25.488C121.613 25.232 121.698 24.976 121.741 24.72C121.826 24.3787 121.912 24.016 121.997 23.632C122.082 23.2053 122.146 22.8213 122.189 22.48C122.146 22.2667 121.912 22.0747 121.485 21.904C121.058 21.7333 120.589 21.6053 120.077 21.52C119.608 21.392 119.266 21.328 119.053 21.328C118.242 21.328 117.517 21.6693 116.877 22.352C116.28 22.992 115.768 23.6107 115.341 24.208C114.829 24.976 114.232 25.9787 113.549 27.216C112.909 28.4533 112.269 29.776 111.629 31.184C111.032 32.5493 110.52 33.872 110.093 35.152C109.709 36.432 109.517 37.52 109.517 38.416C109.517 38.6293 109.538 38.9067 109.581 39.248C109.666 39.5893 109.858 39.76 110.157 39.76ZM131.743 41.936C131.359 41.936 131.018 41.8293 130.719 41.616C130.463 41.4027 130.335 41.0827 130.335 40.656C130.335 40.0587 130.378 39.312 130.463 38.416C130.548 37.52 130.634 36.752 130.719 36.112C131.06 34.064 131.444 32.016 131.871 29.968C132.34 27.8773 132.852 25.8293 133.407 23.824C133.919 21.8613 134.516 19.792 135.199 17.616C135.882 15.3973 136.714 13.2427 137.695 11.152C138.676 9.06133 139.871 7.184 141.279 5.52C142.73 3.81333 144.458 2.512 146.463 1.616C146.975 1.40266 147.508 1.232 148.063 1.104C148.618 0.933332 149.172 0.848 149.727 0.848C150.239 0.848 150.836 0.954666 151.519 1.168C152.244 1.38133 152.863 1.70133 153.375 2.128C153.887 2.512 154.143 3.024 154.143 3.664C154.143 3.92 154.079 4.112 153.951 4.24C153.866 4.368 153.524 4.64533 152.927 5.072C152.372 5.456 152.052 5.66933 151.967 5.712C151.882 5.62667 151.839 5.56267 151.839 5.52C151.839 5.392 151.903 5.264 152.031 5.136C152.159 5.008 152.223 4.85866 152.223 4.688C152.223 4.26133 151.988 3.87733 151.519 3.536C151.05 3.152 150.516 2.85333 149.919 2.64C149.322 2.384 148.831 2.256 148.447 2.256C147.039 2.256 145.738 2.85333 144.543 4.048C143.391 5.24267 142.346 6.77867 141.407 8.656C140.468 10.4907 139.636 12.4533 138.911 14.544C138.186 16.592 137.567 18.5333 137.055 20.368C136.543 22.2027 136.138 23.6747 135.839 24.784C135.498 26.0213 135.135 27.408 134.751 28.944C134.367 30.48 134.026 32.0373 133.727 33.616C133.471 35.152 133.343 36.5813 133.343 37.904C133.343 38.288 133.407 38.6933 133.535 39.12C133.706 39.504 134.026 39.696 134.495 39.696C135.135 39.696 135.796 39.4827 136.479 39.056C137.204 38.6293 137.887 38.1387 138.527 37.584C139.21 36.9867 139.786 36.4747 140.255 36.048C140.767 35.6213 141.108 35.408 141.279 35.408C141.364 35.408 141.407 35.4507 141.407 35.536C141.407 35.8347 141.322 36.1333 141.151 36.432C140.98 36.7307 140.788 36.9867 140.575 37.2C140.02 37.7547 139.231 38.416 138.207 39.184C137.183 39.9093 136.095 40.5493 134.943 41.104C133.791 41.6587 132.724 41.936 131.743 41.936Z" fill="#B48821"/>
</g>
<defs>
<filter id="filter0_d_1_2" x="0.232" y="0.656006" width="157.911" height="51.264" filterUnits="userSpaceOnUse" color-interpolation-filters="sRGB">
<feFlood flood-opacity="0" result="BackgroundImageFix"/>
<feColorMatrix in="SourceAlpha" type="matrix" values="0 0 0 0 0 0 0 0 0 0 0 0 0 0 0 0 0 0 127 0" result="hardAlpha"/>
<feOffset dy="4"/>
<feGaussianBlur stdDeviation="2"/>
<feComposite in2="hardAlpha" operator="out"/>
<feColorMatrix type="matrix" values="0 0 0 0 0 0 0 0 0 0 0 0 0 0 0 0 0 0 0.25 0"/>
<feBlend mode="normal" in2="BackgroundImageFix" result="effect1_dropShadow_1_2"/>
<feBlend mode="normal" in="SourceGraphic" in2="effect1_dropShadow_1_2" result="shape"/>
</filter>
</defs>
</svg>
