<svg width="100%" height="100%" id="svg" viewBox="0 0 1440 690" xmlns="http://www.w3.org/2000/svg" class="transition duration-300 ease-in-out delay-150"><defs><linearGradient id="gradient" x1="4%" y1="70%" x2="96%" y2="30%"><stop offset="5%" stop-color="#b48821"></stop><stop offset="95%" stop-color="#fffaf0"></stop></linearGradient></defs><path d="M 0,700 C 0,700 0,233 0,233 C 114.71428571428572,264.07142857142856 229.42857142857144,295.14285714285717 361,295 C 492.57142857142856,294.85714285714283 641,263.5 774,247 C 907,230.49999999999997 1024.5714285714287,228.85714285714283 1133,229 C 1241.4285714285713,229.14285714285717 1340.7142857142858,231.07142857142858 1440,233 C 1440,233 1440,700 1440,700 Z" stroke="none" stroke-width="0" fill="url(#gradient)" fill-opacity="0.53" class="transition-all duration-300 ease-in-out delay-150 path-0"></path><defs><linearGradient id="gradient" x1="4%" y1="70%" x2="96%" y2="30%"><stop offset="5%" stop-color="#b48821"></stop><stop offset="95%" stop-color="#fffaf0"></stop></linearGradient></defs><path d="M 0,700 C 0,700 0,466 0,466 C 100.07142857142861,482.7857142857143 200.14285714285722,499.57142857142856 333,502 C 465.8571428571428,504.42857142857144 631.4999999999998,492.50000000000006 768,469 C 904.5000000000002,445.49999999999994 1011.8571428571429,410.4285714285714 1119,408 C 1226.142857142857,405.5714285714286 1333.0714285714284,435.78571428571433 1440,466 C 1440,466 1440,700 1440,700 Z" stroke="none" stroke-width="0" fill="url(#gradient)" fill-opacity="1" class="transition-all duration-300 ease-in-out delay-150 path-1"></path></svg>